<?xml version="1.0" encoding="utf-8"?>
<!-- Generator: Adobe Illustrator 16.0.0, SVG Export Plug-In . SVG Version: 6.00 Build 0)  -->
<!DOCTYPE svg PUBLIC "-//W3C//DTD SVG 1.1//EN" "http://www.w3.org/Graphics/SVG/1.1/DTD/svg11.dtd">
<svg version="1.1" id="Emoji_happy" xmlns="http://www.w3.org/2000/svg" xmlns:xlink="http://www.w3.org/1999/xlink" x="0px"
	 y="0px" width="960px" height="560px" viewBox="0 0 960 560" enable-background="new 0 0 960 560" xml:space="preserve">
<path d="M480,11.2c-148.456,0-268.8,120.344-268.8,268.8S331.544,548.8,480,548.8c148.428,0,268.8-120.344,268.8-268.828
	C748.8,131.544,628.428,11.2,480,11.2z M480,492.772c-117.516,0-212.8-95.257-212.8-212.8C267.2,162.428,362.456,67.2,480,67.2
	c117.516,0,212.828,95.256,212.828,212.8S597.516,492.772,480,492.772z M410.028,273C433.212,273,452,251.076,452,224
	s-18.816-49-42-49c-23.184,0-42,21.924-42,49S386.816,273,410.028,273z M550,273c23.212,0,42-21.924,42-49s-18.816-49-42-49
	s-42,21.952-42,49S526.816,273,550,273z M601.548,317.408c-10.164-5.208-22.819-1.204-28.224,8.96
	c-0.952,1.848-24.332,44.604-93.296,44.604c-68.628,0-92.148-42.363-93.324-44.575c-5.264-10.221-17.696-14.393-28.112-9.213
	c-10.36,5.208-14.56,17.809-9.38,28.196c1.4,2.772,34.944,67.592,130.816,67.592c95.899,0,129.388-64.848,130.76-67.62
	C615.94,335.076,611.796,322.672,601.548,317.408z"/>
</svg>
