<?xml version="1.0" encoding="utf-8"?>
<!-- Generator: Adobe Illustrator 16.0.0, SVG Export Plug-In . SVG Version: 6.00 Build 0)  -->
<!DOCTYPE svg PUBLIC "-//W3C//DTD SVG 1.1//EN" "http://www.w3.org/Graphics/SVG/1.1/DTD/svg11.dtd">
<svg version="1.1" id="Emoji_sad" xmlns="http://www.w3.org/2000/svg" xmlns:xlink="http://www.w3.org/1999/xlink" x="0px" y="0px"
	 width="960px" height="560px" viewBox="0 0 960 560" enable-background="new 0 0 960 560" xml:space="preserve">
<path d="M480.028,11.2C331.544,11.2,211.2,131.544,211.2,280c0,148.484,120.344,268.828,268.828,268.828
	c148.428,0,268.8-120.344,268.8-268.828C748.8,131.544,628.428,11.2,480.028,11.2z M480,492.772
	c-117.516,0-212.8-95.257-212.8-212.8c0-117.516,95.256-212.8,212.8-212.8c117.516,0,212.8,95.256,212.8,212.8
	C692.8,397.516,597.516,492.772,480,492.772z M550.028,273c23.184,0,42-21.924,42-49s-18.816-49-42-49c-23.185,0-42,21.924-42,49
	S526.816,273,550.028,273z M410.028,273c23.184,0,42-21.924,42-49s-18.816-49-42-49c-23.185,0-42,21.924-42,49
	S386.816,273,410.028,273z M480.056,315c-95.872,0-129.416,64.82-130.815,67.592c-5.208,10.389-0.98,22.988,9.38,28.196
	c3.024,1.484,6.216,2.212,9.38,2.212c7.7,0,15.12-4.228,18.816-11.592c0.224-0.477,23.016-44.408,93.24-44.408
	c68.964,0,92.345,42.756,93.185,44.38c5.151,10.36,17.779,14.645,28.168,9.408c10.388-5.152,14.588-17.808,9.408-28.168
	C609.444,379.848,575.928,315,480.056,315z"/>
</svg>
